# xmcd CD database file
#
# Track frame offsets:
#	150
#	22155
#	36957
#	50983
#	69327
#	85838
#	98183
#	116199
#	133274
#	150265
#	163150
#
# Disc length: 2433 seconds
#
# Revision: 0
# Processed by: cddbd v1.5.2PL0 Copyright (c) Steve Scherf et al.
# Submitted via: CDex 1.51
#
DISCID=99097f0b
DTITLE=CD TEX VOL 26 - OCTOBER 2004
DYEAR=2004
DGENRE=Country
TTITLE0=My Home Town
TTITLE1=Feet Of Clay
TTITLE2=Friday Night Lights
TTITLE3=WaterTower Skyline
TTITLE4=Smoke And Mirrors
TTITLE5=It's About To Get Western
TTITLE6=Broken
TTITLE7=Easy Money
TTITLE8=Feelin' Stud
TTITLE9=Let's Get It On
TTITLE10=C-Ya Soon
EXTD=YEAR: 2004
EXTT0=
EXTT1=
EXTT2=
EXTT3=
EXTT4=
EXTT5=
EXTT6=
EXTT7=
EXTT8=
EXTT9=
EXTT10=
PLAYORDER=
